HIERARCHY
ROOT hip
{
  OFFSET 0 0 0
  CHANNELS 6 Xposition Yposition Zposition Zrotation Yrotation Xrotation
  JOINT abdomen
  {
    OFFSET 0 20.6881 -0.73152
    CHANNELS 3 Zrotation Xrotation Yrotation
    JOINT chest
    {
      OFFSET 0 11.7043 -0.48768
      CHANNELS 3 Zrotation Xrotation Yrotation
      JOINT neck
      {
        OFFSET 0 22.1894 -2.19456
        CHANNELS 3 Zrotation Xrotation Yrotation
        JOINT head
        {
          OFFSET -0.24384 7.07133 1.2192
          CHANNELS 3 Zrotation Xrotation Yrotation
          JOINT leftEye
          {
            OFFSET 4.14528 8.04674 8.04672
            CHANNELS 3 Zrotation Xrotation Yrotation
            End Site
            {
              OFFSET 1 0 0
            }
          }
          JOINT rightEye
          {
            OFFSET -3.6576 8.04674 8.04672
            CHANNELS 3 Zrotation Xrotation Yrotation
            End Site
            {
              OFFSET 1 0 0
            }
          }
        }
      }
      JOINT rCollar
      {
        OFFSET -2.68224 19.2634 -4.8768
        CHANNELS 3 Zrotation Xrotation Yrotation
        JOINT rShldr
        {
          OFFSET -8.77824 -1.95073 1.46304
          CHANNELS 3 Zrotation Xrotation Yrotation
          JOINT rForeArm
          {
            OFFSET -28.1742 -1.7115 0.48768
            CHANNELS 3 Zrotation Xrotation Yrotation
            JOINT rHand
            {
              OFFSET -22.5879 0.773209 7.07136
              CHANNELS 3 Zrotation Xrotation Yrotation
              JOINT rThumb1
              {
                OFFSET -1.2192 -0.487915 3.41376
                CHANNELS 3 Zrotation Xrotation Yrotation
                JOINT rThumb2
                {
                  OFFSET -3.37035 -0.52449 3.41376
                  CHANNELS 3 Zrotation Xrotation Yrotation
                  End Site
                  {
                    OFFSET -1.78271 -1.18214 1.43049
                  }
                }
              }
              JOINT rIndex1
              {
                OFFSET -7.75947 0.938293 5.60832
                CHANNELS 3 Zrotation Xrotation Yrotation
                JOINT rIndex2
                {
                  OFFSET -2.54057 -0.884171 1.56538
                  CHANNELS 3 Zrotation Xrotation Yrotation
                  End Site
                  {
                    OFFSET -1.62519 -0.234802 1.16502
                  }
                }
              }
              JOINT rMid1
              {
                OFFSET -8.24714 1.18213 3.41376
                CHANNELS 3 Zrotation Xrotation Yrotation
                JOINT rMid2
                {
                  OFFSET -3.10165 -0.590103 1.0647
                  CHANNELS 3 Zrotation Xrotation Yrotation
                  End Site
                  {
                    OFFSET -2.48547 -0.328903 0.83742
                  }
                }
              }
              JOINT rRing1
              {
                OFFSET -8.82822 0.546677 1.51678
                CHANNELS 3 Zrotation Xrotation Yrotation
                JOINT rRing2
                {
                  OFFSET -2.60934 -0.819778 -0.0198488
                  CHANNELS 3 Zrotation Xrotation Yrotation
                  End Site
                  {
                    OFFSET -2.33842 -0.294052 0.168128
                  }
                }
              }
              JOINT rPinky1
              {
                OFFSET -8.27202 -0.0477905 -0.4584
                CHANNELS 3 Zrotation Xrotation Yrotation
                JOINT rPinky2
                {
                  OFFSET -1.82734 -0.647385 -0.700984
                  CHANNELS 3 Zrotation Xrotation Yrotation
                  End Site
                  {
                    OFFSET -1.69225 -0.51767 -0.607171
                  }
                }
              }
            }
          }
        }
      }
      JOINT lCollar
      {
        OFFSET 2.68224 19.2634 -4.8768
        CHANNELS 3 Zrotation Xrotation Yrotation
        JOINT lShldr
        {
          OFFSET 8.77824 -1.95073 1.46304
          CHANNELS 3 Zrotation Xrotation Yrotation
          JOINT lForeArm
          {
            OFFSET 28.1742 -1.7115 0.48768
            CHANNELS 3 Zrotation Xrotation Yrotation
            JOINT lHand
            {
              OFFSET 22.5879 0.773209 7.07136
              CHANNELS 3 Zrotation Xrotation Yrotation
              JOINT lThumb1
              {
                OFFSET 1.2192 -0.487915 3.41376
                CHANNELS 3 Zrotation Xrotation Yrotation
                JOINT lThumb2
                {
                  OFFSET 3.37035 -0.52449 3.41376
                  CHANNELS 3 Zrotation Xrotation Yrotation
                  End Site
                  {
                    OFFSET 1.78271 -1.18214 1.43049
                  }
                }
              }
              JOINT lIndex1
              {
                OFFSET 7.75947 0.938293 5.60832
                CHANNELS 3 Zrotation Xrotation Yrotation
                JOINT lIndex2
                {
                  OFFSET 2.54057 -0.884171 1.56538
                  CHANNELS 3 Zrotation Xrotation Yrotation
                  End Site
                  {
                    OFFSET 1.62519 -0.234802 1.16502
                  }
                }
              }
              JOINT lMid1
              {
                OFFSET 8.24714 1.18213 3.41376
                CHANNELS 3 Zrotation Xrotation Yrotation
                JOINT lMid2
                {
                  OFFSET 3.10165 -0.590103 1.0647
                  CHANNELS 3 Zrotation Xrotation Yrotation
                  End Site
                  {
                    OFFSET 2.48547 -0.328903 0.83742
                  }
                }
              }
              JOINT lRing1
              {
                OFFSET 8.82822 0.546677 1.51678
                CHANNELS 3 Zrotation Xrotation Yrotation
                JOINT lRing2
                {
                  OFFSET 2.60934 -0.819778 -0.0198488
                  CHANNELS 3 Zrotation Xrotation Yrotation
                  End Site
                  {
                    OFFSET 2.33842 -0.294052 0.168128
                  }
                }
              }
              JOINT lPinky1
              {
                OFFSET 8.27202 -0.0477905 -0.4584
                CHANNELS 3 Zrotation Xrotation Yrotation
                JOINT lPinky2
                {
                  OFFSET 1.82734 -0.647385 -0.700984
                  CHANNELS 3 Zrotation Xrotation Yrotation
                  End Site
                  {
                    OFFSET 1.69225 -0.51767 -0.607171
                  }
                }
              }
            }
          }
        }
      }
    }
  }
  JOINT rButtock
  {
    OFFSET -8.77824 4.35084 1.2192
    CHANNELS 3 Zrotation Xrotation Yrotation
    JOINT rThigh
    {
      OFFSET 0 -1.70687 -2.19456
      CHANNELS 3 Zrotation Xrotation Yrotation
      JOINT rShin
      {
        OFFSET 0 -36.8199 0.73152
        CHANNELS 3 Zrotation Xrotation Yrotation
        JOINT rFoot
        {
          OFFSET 0.73152 -45.1104 -5.12064
          CHANNELS 3 Zrotation Xrotation Yrotation
          End Site
          {
            OFFSET -1.1221 -3.69964 12.103
          }
        }
      }
    }
  }
  JOINT lButtock
  {
    OFFSET 8.77824 4.35084 1.2192
    CHANNELS 3 Zrotation Xrotation Yrotation
    JOINT lThigh
    {
      OFFSET 0 -1.70687 -2.19456
      CHANNELS 3 Zrotation Xrotation Yrotation
      JOINT lShin
      {
        OFFSET 0 -36.8199 0.73152
        CHANNELS 3 Zrotation Xrotation Yrotation
        JOINT lFoot
        {
          OFFSET -0.73152 -45.1104 -5.12064
          CHANNELS 3 Zrotation Xrotation Yrotation
          End Site
          {
            OFFSET 1.1221 -3.69964 12.103
          }
        }
      }
    }
  }
}
MOTION
Frames:	7
Frame Time:	0.00833333
-37.9596 75.7736 -31.5944 -189.864 86.5582 -169.126 2.48066 32.2702 -3.98219 -2.35125 -8.85063 -0.607533 1.6166 19.6583 -0.997049 1.89074 -48.7788 -0.832747 -0.0 0.0 0.0 -0.0 0.0 0.0 1.97314e-13 -3.51072e-12 -1.43516e-13 81.5334 28.1443 -0.0117643 -14.0604 -7.00333 25.6757 -0.00264908 -1.47403 -0.207207 -3.62747e-10 5.17956e-10 2.34791e-09 -6.22229e-10 8.94686e-10 4.05985e-09 -3.62746e-10 5.1796e-10 2.3479e-09 7.73091 5.47488 0.417314 -3.62746e-10 5.17957e-10 2.3479e-09 2.90554 0.965183 0.102902 -3.62745e-10 5.17961e-10 2.34791e-09 10.2786 0.731801 0.0259123 -3.62746e-10 5.17962e-10 2.34791e-09 2.22167 -0.733487 -0.20892 1.97256e-13 -3.51072e-12 -1.43749e-13 -81.4193 27.5244 2.00229 12.7387 -5.98023 -23.0489 0.72266 -23.4055 3.48766 -6.70278e-10 5.04643e-12 -2.97132e-09 -1.11558e-09 1.5056e-12 -5.14345e-09 -6.70286e-10 5.04838e-12 -2.97131e-09 -7.73091 5.47488 -0.417314 -6.70279e-10 5.04762e-12 -2.97132e-09 -2.90554 0.965183 -0.102902 -6.70285e-10 5.04771e-12 -2.97132e-09 -10.2786 0.731801 -0.0259123 -6.7028e-10 5.04724e-12 -2.97133e-09 -2.22167 -0.733487 0.20892 -2.03217e-16 0.0 -3.88251e-19 9.98871 -50.7684 14.1779 -0.539839 48.6498 1.08249 -4.76889 -15.1243 -12.5361 2.03217e-16 0.0 3.88251e-19 5.95179 -45.995 9.13791 1.50123 66.662 -2.35213 0.464425 -11.3047 -1.19397
-37.1639 75.7234 -31.5299 -188.181 86.584 -167.482 2.52553 32.3162 -3.93445 -2.37012 -8.81803 -0.588054 1.60399 19.6572 -0.987635 1.88136 -48.7548 -0.819224 -0.0 0.0 0.0 -0.0 0.0 0.0 3.24106e-13 -1.906e-12 -1.69948e-13 81.4888 28.1379 0.0011169 -14.0398 -6.98668 25.6343 -0.00239873 -1.40151 -0.197009 -3.27045e-10 2.72305e-10 8.48808e-10 -5.6253e-10 4.70294e-10 1.46763e-09 -3.27044e-10 2.72309e-10 8.48801e-10 7.73091 5.47488 0.417314 -3.27046e-10 2.7231e-10 8.48802e-10 2.90554 0.965183 0.102902 -3.27042e-10 2.7231e-10 8.48806e-10 10.2786 0.731801 0.0259123 -3.27044e-10 2.7231e-10 8.48808e-10 2.22167 -0.733487 -0.20892 3.24063e-13 -1.906e-12 -1.70162e-13 -81.4446 27.4716 2.01707 12.7073 -5.95714 -22.9874 0.723787 -23.4225 3.49051 -4.82055e-10 -2.2686e-13 -1.17636e-09 -8.15556e-10 -4.99769e-12 -2.03921e-09 -4.82064e-10 -2.24348e-13 -1.17636e-09 -7.73091 5.47488 -0.417314 -4.82055e-10 -2.25567e-13 -1.17636e-09 -2.90554 0.965183 -0.102902 -4.82064e-10 -2.25639e-13 -1.17636e-09 -10.2786 0.731801 -0.0259123 -4.82057e-10 -2.27186e-13 -1.17637e-09 -2.22167 -0.733487 0.20892 -2.03217e-16 0.0 -3.88251e-19 10.0757 -50.2654 14.043 -0.54853 48.8842 1.08456 -4.82143 -15.6811 -12.3681 2.03217e-16 0.0 3.88251e-19 6.02009 -47.3753 9.41894 1.45439 66.0961 -2.26654 0.505439 -11.8487 -0.939627
-36.3621 75.6665 -31.4694 -186.519 86.631 -165.873 2.54452 32.3682 -3.87188 -2.38967 -8.78892 -0.56617 1.59946 19.6597 -0.979185 1.86914 -48.7333 -0.808333 -0.0 0.0 0.0 -0.0 0.0 0.0 3.82859e-13 -5.91229e-13 -1.72396e-13 81.4515 28.1162 0.0106845 -14.0201 -6.97077 25.5947 -0.00222372 -1.34637 -0.189255 -2.6341e-10 1.02455e-10 -2.17337e-10 -4.54111e-10 1.77023e-10 -3.76004e-10 -2.63408e-10 1.02459e-10 -2.17343e-10 7.73091 5.47488 0.417314 -2.63412e-10 1.02462e-10 -2.17343e-10 2.90554 0.965183 0.102902 -2.63407e-10 1.02459e-10 -2.17338e-10 10.2786 0.731801 0.0259123 -2.63409e-10 1.02459e-10 -2.17337e-10 2.22167 -0.733487 -0.20892 3.82835e-13 -5.91229e-13 -1.72595e-13 -81.4689 27.4226 2.03973 12.6732 -5.93215 -22.9207 0.723221 -23.4141 3.4891 -2.93549e-10 2.5609e-11 1.28103e-10 -5.08371e-10 4.22664e-11 2.17604e-10 -2.93559e-10 2.56118e-11 1.281e-10 -7.73091 5.47488 -0.417314 -2.9355e-10 2.56103e-11 1.28097e-10 -2.90554 0.965183 -0.102902 -2.9356e-10 2.56101e-11 1.28098e-10 -10.2786 0.731801 -0.0259123 -2.93551e-10 2.56082e-11 1.2809e-10 -2.22167 -0.733487 0.20892 -2.03217e-16 0.0 -3.88251e-19 10.1467 -49.7429 13.8976 -0.557275 49.1003 1.08391 -4.85847 -16.2254 -12.1767 2.03217e-16 0.0 3.88251e-19 6.07054 -48.6944 9.70544 1.39871 65.4241 -2.17078 0.577115 -12.3424 -0.590374
-35.5561 75.6022 -31.4128 -184.767 86.7016 -164.184 2.53081 32.4309 -3.78876 -2.41058 -8.76575 -0.54087 1.60612 19.667 -0.973235 1.85014 -48.7113 -0.805077 -0.0 0.0 0.0 -0.0 0.0 0.0 3.37287e-13 4.16048e-13 -1.35693e-13 81.4248 28.0734 0.0142981 -14.0014 -6.95563 25.557 -0.00211804 -1.31221 -0.184452 -1.39861e-10 5.48958e-11 -7.01623e-10 -2.41564e-10 9.54472e-11 -1.21367e-09 -1.39857e-10 5.48993e-11 -7.01629e-10 7.73091 5.47488 0.417314 -1.39862e-10 5.49017e-11 -7.01629e-10 2.90554 0.965183 0.102902 -1.39855e-10 5.48978e-11 -7.01623e-10 10.2786 0.731801 0.0259123 -1.3986e-10 5.48971e-11 -7.01622e-10 2.22167 -0.733487 -0.20892 3.37293e-13 4.16049e-13 -1.35877e-13 -81.4907 27.3768 2.07095 12.6346 -5.90379 -22.8449 0.720346 -23.371 3.48188 -7.44084e-11 1.19835e-10 7.81873e-10 -1.39556e-10 2.08266e-10 1.3508e-09 -7.44173e-11 1.19837e-10 7.8187e-10 -7.73091 5.47488 -0.417314 -7.4409e-11 1.19836e-10 7.81869e-10 -2.90554 0.965183 -0.102902 -7.44192e-11 1.19836e-10 7.81868e-10 -10.2786 0.731801 -0.0259123 -7.44087e-11 1.19835e-10 7.81861e-10 -2.22167 -0.733487 0.20892 -2.03217e-16 0.0 -3.88251e-19 10.2061 -49.2026 13.7486 -0.566527 49.312 1.08101 -4.88003 -16.7626 -11.9601 2.03217e-16 0.0 3.88251e-19 6.09834 -49.9562 9.99967 1.33807 64.6549 -2.06881 0.691382 -12.7872 -0.106484
-34.7449 75.5366 -31.3602 -182.974 86.7904 -162.463 2.49606 32.5007 -3.692 -2.43212 -8.74583 -0.512988 1.62041 19.6777 -0.968077 1.82563 -48.6864 -0.805637 -0.0 0.0 0.0 -0.0 0.0 0.0 2.24686e-13 1.21168e-12 -7.3423e-14 81.4038 28.014 0.0145276 -13.9833 -6.94101 25.5205 -0.00204756 -1.29019 -0.181356 3.57163e-11 7.00078e-11 -9.28678e-10 6.10819e-11 1.22437e-10 -1.60665e-09 3.57213e-11 7.00104e-11 -9.28685e-10 7.73091 5.47488 0.417314 3.57167e-11 7.00108e-11 -9.28683e-10 2.90554 0.965183 0.102902 3.5726e-11 7.00079e-11 -9.28677e-10 10.2786 0.731801 0.0259123 3.57158e-11 7.00061e-11 -9.28677e-10 2.22167 -0.733487 -0.20892 2.24731e-13 1.21169e-12 -7.35907e-14 -81.5127 27.3312 2.10914 12.5907 -5.87167 -22.759 0.71565 -23.3 3.47003 1.90951e-10 2.51572e-10 1.15303e-09 3.12824e-10 4.397e-10 1.99649e-09 1.90944e-10 2.51574e-10 1.15302e-09 -7.73091 5.47488 -0.417314 1.90951e-10 2.51573e-10 1.15302e-09 -2.90554 0.965183 -0.102902 1.90942e-10 2.51572e-10 1.15302e-09 -10.2786 0.731801 -0.0259123 1.90953e-10 2.51573e-10 1.15302e-09 -2.22167 -0.733487 0.20892 -2.03217e-16 0.0 -3.88251e-19 10.2566 -48.6486 13.5904 -0.576287 49.5232 1.07609 -4.88429 -17.2986 -11.7122 2.03217e-16 0.0 3.88251e-19 6.10842 -51.1689 10.2991 1.27436 63.7855 -1.96248 0.842986 -13.1822 0.486715
-33.9334 75.474 -31.3121 -181.115 86.8912 -160.678 2.44661 32.5696 -3.58913 -2.45329 -8.72565 -0.484177 1.63799 19.6903 -0.961528 1.80356 -48.6673 -0.801606 -0.0 0.0 0.0 -0.0 0.0 0.0 9.87281e-14 1.76328e-12 -9.5273e-15 81.3846 27.9477 0.0153848 -13.9659 -6.92703 25.4857 -0.00200852 -1.27884 -0.179759 1.97278e-10 8.79032e-11 -9.90066e-10 3.39682e-10 1.54049e-10 -1.71308e-09 1.97284e-10 8.79049e-11 -9.90073e-10 7.73091 5.47488 0.417314 1.97279e-10 8.7903e-11 -9.90071e-10 2.90554 0.965183 0.102902 1.97291e-10 8.79015e-11 -9.90063e-10 10.2786 0.731801 0.0259123 1.97276e-10 8.78989e-11 -9.90064e-10 2.22167 -0.733487 -0.20892 9.88012e-14 1.76328e-12 -9.68183e-15 -81.5356 27.2896 2.15392 12.5464 -5.83929 -22.6724 0.710199 -23.2172 3.45621 4.22545e-10 3.60097e-10 1.32593e-09 7.09762e-10 6.30365e-10 2.29904e-09 4.22539e-10 3.60099e-10 1.32593e-09 -7.73091 5.47488 -0.417314 4.22545e-10 3.60098e-10 1.32593e-09 -2.90554 0.965183 -0.102902 4.22538e-10 3.60098e-10 1.32593e-09 -10.2786 0.731801 -0.0259123 4.2255e-10 3.601e-10 1.32592e-09 -2.22167 -0.733487 0.20892 -2.03217e-16 0.0 -3.88251e-19 10.2889 -48.0734 13.4143 -0.585364 49.7 1.06779 -4.87018 -17.8166 -11.4403 2.03217e-16 0.0 3.88251e-19 6.10344 -52.318 10.5962 1.20555 62.7979 -1.84927 1.01362 -13.5229 1.12015
-33.119 75.421 -31.2664 -179.123 87.0031 -158.761 2.38892 32.6294 -3.48776 -2.47309 -8.7017 -0.456086 1.65449 19.7033 -0.951409 1.7919 -48.6627 -0.784583 -0.0 0.0 0.0 -0.0 0.0 0.0 1.30811e-14 2.03844e-12 3.2054e-14 81.3635 27.8844 0.0208726 -13.9495 -6.91382 25.4527 -0.00199934 -1.27665 -0.179452 2.7878e-10 4.86943e-11 -9.77349e-10 4.80094e-10 8.63362e-11 -1.69106e-09 2.78788e-10 4.86951e-11 -9.77356e-10 7.73091 5.47488 0.417314 2.78783e-10 4.86918e-11 -9.77353e-10 2.90554 0.965183 0.102902 2.78795e-10 4.86913e-11 -9.77346e-10 10.2786 0.731801 0.0259123 2.78778e-10 4.86887e-11 -9.77346e-10 2.22167 -0.733487 -0.20892 1.31593e-14 2.03844e-12 3.19049e-14 -81.5604 27.2558 2.20493 12.5066 -5.81022 -22.5946 0.705031 -23.1383 3.44307 5.40391e-10 3.84689e-10 1.38495e-09 9.12251e-10 6.74058e-10 2.40278e-09 5.40386e-10 3.8469e-10 1.38495e-09 -7.73091 5.47488 -0.417314 5.40391e-10 3.84689e-10 1.38495e-09 -2.90554 0.965183 -0.102902 5.40384e-10 3.84689e-10 1.38495e-09 -10.2786 0.731801 -0.0259123 5.40397e-10 3.84692e-10 1.38494e-09 -2.22167 -0.733487 0.20892 -2.03217e-16 0.0 -3.88251e-19 10.2941 -47.4691 13.2127 -0.592585 49.8082 1.05477 -4.83729 -18.3 -11.1521 2.03217e-16 0.0 3.88251e-19 6.08458 -53.3893 10.882 1.13042 61.6742 -1.72743 1.18276 -13.8051 1.72419
